<mxfile host="app.diagrams.net" agent="Mozilla/5.0 (Windows NT 10.0; Win64; x64) AppleWebKit/537.36 (KHTML, like Gecko) Chrome/130.0.0.0 Safari/537.36" version="24.8.3">
  <diagram id="C5RBs43oDa-KdzZeNtuy" name="Page-1">
    <mxGraphModel dx="2206" dy="1055" grid="1" gridSize="10" guides="1" tooltips="1" connect="1" arrows="1" fold="1" page="1" pageScale="1" pageWidth="827" pageHeight="1169" math="0" shadow="0">
      <root>
        <mxCell id="WIyWlLk6GJQsqaUBKTNV-0" />
        <mxCell id="WIyWlLk6GJQsqaUBKTNV-1" parent="WIyWlLk6GJQsqaUBKTNV-0" />
        <mxCell id="FrLhpvqqnkOJKGce-dih-31" value="" style="edgeStyle=orthogonalEdgeStyle;rounded=0;orthogonalLoop=1;jettySize=auto;html=1;" edge="1" parent="WIyWlLk6GJQsqaUBKTNV-1" source="FrLhpvqqnkOJKGce-dih-0" target="FrLhpvqqnkOJKGce-dih-2">
          <mxGeometry relative="1" as="geometry" />
        </mxCell>
        <mxCell id="FrLhpvqqnkOJKGce-dih-0" value="begin main()" style="strokeWidth=2;html=1;shape=mxgraph.flowchart.start_1;whiteSpace=wrap;fillColor=#f8cecc;strokeColor=#b85450;" vertex="1" parent="WIyWlLk6GJQsqaUBKTNV-1">
          <mxGeometry x="330" y="80" width="100" height="60" as="geometry" />
        </mxCell>
        <mxCell id="FrLhpvqqnkOJKGce-dih-1" value="credits()" style="verticalLabelPosition=middle;verticalAlign=middle;html=1;shape=process;whiteSpace=wrap;rounded=1;size=0.14;arcSize=6;labelPosition=center;align=center;fillColor=#b0e3e6;strokeColor=#0e8088;" vertex="1" parent="WIyWlLk6GJQsqaUBKTNV-1">
          <mxGeometry x="110" y="390" width="130" height="80" as="geometry" />
        </mxCell>
        <mxCell id="FrLhpvqqnkOJKGce-dih-18" style="edgeStyle=orthogonalEdgeStyle;rounded=0;orthogonalLoop=1;jettySize=auto;html=1;entryX=0.5;entryY=0;entryDx=0;entryDy=0;" edge="1" parent="WIyWlLk6GJQsqaUBKTNV-1" source="FrLhpvqqnkOJKGce-dih-2" target="FrLhpvqqnkOJKGce-dih-4">
          <mxGeometry relative="1" as="geometry" />
        </mxCell>
        <mxCell id="FrLhpvqqnkOJKGce-dih-2" value="Open main menu." style="rounded=1;whiteSpace=wrap;html=1;absoluteArcSize=1;arcSize=14;strokeWidth=2;fillColor=#ffe6cc;strokeColor=#d79b00;" vertex="1" parent="WIyWlLk6GJQsqaUBKTNV-1">
          <mxGeometry x="330" y="180" width="100" height="50" as="geometry" />
        </mxCell>
        <mxCell id="FrLhpvqqnkOJKGce-dih-21" value="" style="edgeStyle=orthogonalEdgeStyle;rounded=0;orthogonalLoop=1;jettySize=auto;html=1;" edge="1" parent="WIyWlLk6GJQsqaUBKTNV-1" source="FrLhpvqqnkOJKGce-dih-3" target="FrLhpvqqnkOJKGce-dih-20">
          <mxGeometry relative="1" as="geometry" />
        </mxCell>
        <mxCell id="FrLhpvqqnkOJKGce-dih-3" value="Have player select a &quot;level&quot; (starting position)" style="html=1;strokeWidth=2;shape=manualInput;whiteSpace=wrap;rounded=1;size=26;arcSize=11;verticalAlign=bottom;fillColor=#e1d5e7;strokeColor=#9673a6;" vertex="1" parent="WIyWlLk6GJQsqaUBKTNV-1">
          <mxGeometry x="330" y="520" width="100" height="70" as="geometry" />
        </mxCell>
        <mxCell id="FrLhpvqqnkOJKGce-dih-4" value="Have player select between &quot;play&quot;, &quot;credits&quot;, &quot;tutorial.&quot;" style="html=1;strokeWidth=2;shape=manualInput;whiteSpace=wrap;rounded=1;size=26;arcSize=11;verticalAlign=bottom;fillColor=#e1d5e7;strokeColor=#9673a6;" vertex="1" parent="WIyWlLk6GJQsqaUBKTNV-1">
          <mxGeometry x="315" y="270" width="130" height="70" as="geometry" />
        </mxCell>
        <mxCell id="FrLhpvqqnkOJKGce-dih-10" value="" style="edgeStyle=orthogonalEdgeStyle;rounded=0;orthogonalLoop=1;jettySize=auto;html=1;entryX=1;entryY=0.5;entryDx=0;entryDy=0;" edge="1" parent="WIyWlLk6GJQsqaUBKTNV-1" source="FrLhpvqqnkOJKGce-dih-6" target="FrLhpvqqnkOJKGce-dih-1">
          <mxGeometry relative="1" as="geometry">
            <mxPoint x="380" y="520" as="targetPoint" />
          </mxGeometry>
        </mxCell>
        <mxCell id="FrLhpvqqnkOJKGce-dih-11" value="credits" style="edgeLabel;html=1;align=center;verticalAlign=middle;resizable=0;points=[];" vertex="1" connectable="0" parent="FrLhpvqqnkOJKGce-dih-10">
          <mxGeometry x="-0.2" y="-4" relative="1" as="geometry">
            <mxPoint as="offset" />
          </mxGeometry>
        </mxCell>
        <mxCell id="FrLhpvqqnkOJKGce-dih-13" value="" style="edgeStyle=orthogonalEdgeStyle;rounded=0;orthogonalLoop=1;jettySize=auto;html=1;" edge="1" parent="WIyWlLk6GJQsqaUBKTNV-1" source="FrLhpvqqnkOJKGce-dih-6" target="FrLhpvqqnkOJKGce-dih-12">
          <mxGeometry relative="1" as="geometry" />
        </mxCell>
        <mxCell id="FrLhpvqqnkOJKGce-dih-14" value="tutorial" style="edgeLabel;html=1;align=center;verticalAlign=middle;resizable=0;points=[];" vertex="1" connectable="0" parent="FrLhpvqqnkOJKGce-dih-13">
          <mxGeometry x="-0.3667" y="1" relative="1" as="geometry">
            <mxPoint as="offset" />
          </mxGeometry>
        </mxCell>
        <mxCell id="FrLhpvqqnkOJKGce-dih-15" value="" style="edgeStyle=orthogonalEdgeStyle;rounded=0;orthogonalLoop=1;jettySize=auto;html=1;" edge="1" parent="WIyWlLk6GJQsqaUBKTNV-1" source="FrLhpvqqnkOJKGce-dih-6" target="FrLhpvqqnkOJKGce-dih-3">
          <mxGeometry relative="1" as="geometry" />
        </mxCell>
        <mxCell id="FrLhpvqqnkOJKGce-dih-16" value="play" style="edgeLabel;html=1;align=center;verticalAlign=middle;resizable=0;points=[];" vertex="1" connectable="0" parent="FrLhpvqqnkOJKGce-dih-15">
          <mxGeometry x="-0.05" y="-4" relative="1" as="geometry">
            <mxPoint as="offset" />
          </mxGeometry>
        </mxCell>
        <mxCell id="FrLhpvqqnkOJKGce-dih-6" value="Player selection." style="strokeWidth=2;html=1;shape=mxgraph.flowchart.decision;whiteSpace=wrap;fillColor=#dae8fc;strokeColor=#6c8ebf;" vertex="1" parent="WIyWlLk6GJQsqaUBKTNV-1">
          <mxGeometry x="330" y="380" width="100" height="100" as="geometry" />
        </mxCell>
        <mxCell id="FrLhpvqqnkOJKGce-dih-12" value="tutorial()" style="verticalLabelPosition=middle;verticalAlign=middle;html=1;shape=process;whiteSpace=wrap;rounded=1;size=0.14;arcSize=6;labelPosition=center;align=center;fillColor=#b0e3e6;strokeColor=#0e8088;" vertex="1" parent="WIyWlLk6GJQsqaUBKTNV-1">
          <mxGeometry x="520" y="390" width="130" height="80" as="geometry" />
        </mxCell>
        <mxCell id="FrLhpvqqnkOJKGce-dih-19" style="edgeStyle=orthogonalEdgeStyle;rounded=0;orthogonalLoop=1;jettySize=auto;html=1;entryX=0.5;entryY=0;entryDx=0;entryDy=0;entryPerimeter=0;" edge="1" parent="WIyWlLk6GJQsqaUBKTNV-1" source="FrLhpvqqnkOJKGce-dih-4" target="FrLhpvqqnkOJKGce-dih-6">
          <mxGeometry relative="1" as="geometry" />
        </mxCell>
        <mxCell id="FrLhpvqqnkOJKGce-dih-32" value="" style="edgeStyle=orthogonalEdgeStyle;rounded=0;orthogonalLoop=1;jettySize=auto;html=1;" edge="1" parent="WIyWlLk6GJQsqaUBKTNV-1" source="FrLhpvqqnkOJKGce-dih-20" target="FrLhpvqqnkOJKGce-dih-23">
          <mxGeometry relative="1" as="geometry" />
        </mxCell>
        <mxCell id="FrLhpvqqnkOJKGce-dih-20" value="Game::initialize(level)" style="verticalLabelPosition=middle;verticalAlign=middle;html=1;shape=process;whiteSpace=wrap;rounded=1;size=0.14;arcSize=6;labelPosition=center;align=center;fillColor=#b0e3e6;strokeColor=#0e8088;" vertex="1" parent="WIyWlLk6GJQsqaUBKTNV-1">
          <mxGeometry x="292.5" y="630" width="175" height="80" as="geometry" />
        </mxCell>
        <mxCell id="FrLhpvqqnkOJKGce-dih-25" style="edgeStyle=orthogonalEdgeStyle;rounded=0;orthogonalLoop=1;jettySize=auto;html=1;entryX=0.5;entryY=1;entryDx=0;entryDy=0;" edge="1" parent="WIyWlLk6GJQsqaUBKTNV-1" source="FrLhpvqqnkOJKGce-dih-22" target="FrLhpvqqnkOJKGce-dih-23">
          <mxGeometry relative="1" as="geometry">
            <Array as="points">
              <mxPoint x="175" y="870" />
              <mxPoint x="380" y="870" />
            </Array>
          </mxGeometry>
        </mxCell>
        <mxCell id="FrLhpvqqnkOJKGce-dih-22" value="Game::update()" style="verticalLabelPosition=middle;verticalAlign=middle;html=1;shape=process;whiteSpace=wrap;rounded=1;size=0.14;arcSize=6;labelPosition=center;align=center;fillColor=#b0e3e6;strokeColor=#0e8088;" vertex="1" parent="WIyWlLk6GJQsqaUBKTNV-1">
          <mxGeometry x="110" y="745" width="130" height="80" as="geometry" />
        </mxCell>
        <mxCell id="FrLhpvqqnkOJKGce-dih-24" value="" style="edgeStyle=orthogonalEdgeStyle;rounded=0;orthogonalLoop=1;jettySize=auto;html=1;" edge="1" parent="WIyWlLk6GJQsqaUBKTNV-1" source="FrLhpvqqnkOJKGce-dih-23" target="FrLhpvqqnkOJKGce-dih-22">
          <mxGeometry relative="1" as="geometry" />
        </mxCell>
        <mxCell id="FrLhpvqqnkOJKGce-dih-26" value="Yes" style="edgeLabel;html=1;align=center;verticalAlign=middle;resizable=0;points=[];" vertex="1" connectable="0" parent="FrLhpvqqnkOJKGce-dih-24">
          <mxGeometry x="-0.15" y="-1" relative="1" as="geometry">
            <mxPoint as="offset" />
          </mxGeometry>
        </mxCell>
        <mxCell id="FrLhpvqqnkOJKGce-dih-28" value="" style="edgeStyle=orthogonalEdgeStyle;rounded=0;orthogonalLoop=1;jettySize=auto;html=1;" edge="1" parent="WIyWlLk6GJQsqaUBKTNV-1" source="FrLhpvqqnkOJKGce-dih-23" target="FrLhpvqqnkOJKGce-dih-27">
          <mxGeometry relative="1" as="geometry" />
        </mxCell>
        <mxCell id="FrLhpvqqnkOJKGce-dih-23" value="is Game::running true?" style="verticalLabelPosition=middle;verticalAlign=middle;html=1;shape=hexagon;perimeter=hexagonPerimeter2;arcSize=6;size=0.27;labelPosition=center;align=center;whiteSpace=wrap;fillColor=#fff2cc;strokeColor=#d6b656;" vertex="1" parent="WIyWlLk6GJQsqaUBKTNV-1">
          <mxGeometry x="320" y="750" width="120" height="70" as="geometry" />
        </mxCell>
        <mxCell id="FrLhpvqqnkOJKGce-dih-30" value="" style="edgeStyle=orthogonalEdgeStyle;rounded=0;orthogonalLoop=1;jettySize=auto;html=1;" edge="1" parent="WIyWlLk6GJQsqaUBKTNV-1" source="FrLhpvqqnkOJKGce-dih-27" target="FrLhpvqqnkOJKGce-dih-29">
          <mxGeometry relative="1" as="geometry" />
        </mxCell>
        <mxCell id="FrLhpvqqnkOJKGce-dih-27" value="Game::cleanup()" style="verticalLabelPosition=middle;verticalAlign=middle;html=1;shape=process;whiteSpace=wrap;rounded=1;size=0.14;arcSize=6;labelPosition=center;align=center;fillColor=#b0e3e6;strokeColor=#0e8088;" vertex="1" parent="WIyWlLk6GJQsqaUBKTNV-1">
          <mxGeometry x="520" y="745" width="130" height="80" as="geometry" />
        </mxCell>
        <mxCell id="FrLhpvqqnkOJKGce-dih-29" value="return" style="strokeWidth=2;html=1;shape=mxgraph.flowchart.start_1;whiteSpace=wrap;fillColor=#f8cecc;strokeColor=#b85450;" vertex="1" parent="WIyWlLk6GJQsqaUBKTNV-1">
          <mxGeometry x="535" y="640" width="100" height="60" as="geometry" />
        </mxCell>
      </root>
    </mxGraphModel>
  </diagram>
</mxfile>
